<svg width="252" height="62" viewBox="0 0 252 62" fill="none" xmlns="http://www.w3.org/2000/svg">
<g filter="url(#filter0_d_95_305)">
<rect x="10" y="4" width="238" height="50" rx="15" fill="#3775A8"/>
<rect x="4" width="240" height="50" rx="15" fill="#5EC2ED"/>
<path d="M68.892 29.444H63.654L62.754 32H60.612L65.094 19.472H67.47L71.952 32H69.792L68.892 29.444ZM68.316 27.77L66.282 21.956L64.23 27.77H68.316ZM77.8968 21.92C78.6648 21.92 79.3428 22.076 79.9308 22.388C80.5308 22.688 80.9988 23.066 81.3348 23.522V22.082H83.4048V32.162C83.4048 33.074 83.2128 33.884 82.8288 34.592C82.4448 35.312 81.8868 35.876 81.1548 36.284C80.4348 36.692 79.5708 36.896 78.5628 36.896C77.2188 36.896 76.1028 36.578 75.2148 35.942C74.3268 35.318 73.8228 34.466 73.7028 33.386H75.7368C75.8928 33.902 76.2228 34.316 76.7268 34.628C77.2428 34.952 77.8548 35.114 78.5628 35.114C79.3908 35.114 80.0568 34.862 80.5608 34.358C81.0768 33.854 81.3348 33.122 81.3348 32.162V30.506C80.9868 30.974 80.5128 31.37 79.9128 31.694C79.3248 32.006 78.6528 32.162 77.8968 32.162C77.0328 32.162 76.2408 31.946 75.5208 31.514C74.8128 31.07 74.2488 30.458 73.8288 29.678C73.4208 28.886 73.2168 27.992 73.2168 26.996C73.2168 26 73.4208 25.118 73.8288 24.35C74.2488 23.582 74.8128 22.988 75.5208 22.568C76.2408 22.136 77.0328 21.92 77.8968 21.92ZM81.3348 27.032C81.3348 26.348 81.1908 25.754 80.9028 25.25C80.6268 24.746 80.2608 24.362 79.8048 24.098C79.3488 23.834 78.8568 23.702 78.3288 23.702C77.8008 23.702 77.3088 23.834 76.8528 24.098C76.3968 24.35 76.0248 24.728 75.7368 25.232C75.4608 25.724 75.3228 26.312 75.3228 26.996C75.3228 27.68 75.4608 28.28 75.7368 28.796C76.0248 29.312 76.3968 29.708 76.8528 29.984C77.3208 30.248 77.8128 30.38 78.3288 30.38C78.8568 30.38 79.3488 30.248 79.8048 29.984C80.2608 29.72 80.6268 29.336 80.9028 28.832C81.1908 28.316 81.3348 27.716 81.3348 27.032ZM95.19 26.798C95.19 27.17 95.166 27.506 95.118 27.806H87.54C87.6 28.598 87.894 29.234 88.422 29.714C88.95 30.194 89.598 30.434 90.366 30.434C91.47 30.434 92.25 29.972 92.706 29.048H94.92C94.62 29.96 94.074 30.71 93.282 31.298C92.502 31.874 91.53 32.162 90.366 32.162C89.418 32.162 88.566 31.952 87.81 31.532C87.066 31.1 86.478 30.5 86.046 29.732C85.626 28.952 85.416 28.052 85.416 27.032C85.416 26.012 85.62 25.118 86.028 24.35C86.448 23.57 87.03 22.97 87.774 22.55C88.53 22.13 89.394 21.92 90.366 21.92C91.302 21.92 92.136 22.124 92.868 22.532C93.6 22.94 94.17 23.516 94.578 24.26C94.986 24.992 95.19 25.838 95.19 26.798ZM93.048 26.15C93.036 25.394 92.766 24.788 92.238 24.332C91.71 23.876 91.056 23.648 90.276 23.648C89.568 23.648 88.962 23.876 88.458 24.332C87.954 24.776 87.654 25.382 87.558 26.15H93.048ZM102.213 21.92C102.993 21.92 103.689 22.082 104.301 22.406C104.925 22.73 105.411 23.21 105.759 23.846C106.107 24.482 106.281 25.25 106.281 26.15V32H104.247V26.456C104.247 25.568 104.025 24.89 103.581 24.422C103.137 23.942 102.531 23.702 101.763 23.702C100.995 23.702 100.383 23.942 99.9274 24.422C99.4834 24.89 99.2614 25.568 99.2614 26.456V32H97.2094V22.082H99.2614V23.216C99.5974 22.808 100.023 22.49 100.539 22.262C101.067 22.034 101.625 21.92 102.213 21.92ZM108.215 26.996C108.215 26 108.419 25.118 108.827 24.35C109.247 23.582 109.811 22.988 110.519 22.568C111.239 22.136 112.037 21.92 112.913 21.92C113.561 21.92 114.197 22.064 114.821 22.352C115.457 22.628 115.961 23 116.333 23.468V18.68H118.403V32H116.333V30.506C115.997 30.986 115.529 31.382 114.929 31.694C114.341 32.006 113.663 32.162 112.895 32.162C112.031 32.162 111.239 31.946 110.519 31.514C109.811 31.07 109.247 30.458 108.827 29.678C108.419 28.886 108.215 27.992 108.215 26.996ZM116.333 27.032C116.333 26.348 116.189 25.754 115.901 25.25C115.625 24.746 115.259 24.362 114.803 24.098C114.347 23.834 113.855 23.702 113.327 23.702C112.799 23.702 112.307 23.834 111.851 24.098C111.395 24.35 111.023 24.728 110.735 25.232C110.459 25.724 110.321 26.312 110.321 26.996C110.321 27.68 110.459 28.28 110.735 28.796C111.023 29.312 111.395 29.708 111.851 29.984C112.319 30.248 112.811 30.38 113.327 30.38C113.855 30.38 114.347 30.248 114.803 29.984C115.259 29.72 115.625 29.336 115.901 28.832C116.189 28.316 116.333 27.716 116.333 27.032ZM120.414 26.996C120.414 26 120.618 25.118 121.026 24.35C121.446 23.582 122.01 22.988 122.718 22.568C123.438 22.136 124.23 21.92 125.094 21.92C125.874 21.92 126.552 22.076 127.128 22.388C127.716 22.688 128.184 23.066 128.532 23.522V22.082H130.602V32H128.532V30.524C128.184 30.992 127.71 31.382 127.11 31.694C126.51 32.006 125.826 32.162 125.058 32.162C124.206 32.162 123.426 31.946 122.718 31.514C122.01 31.07 121.446 30.458 121.026 29.678C120.618 28.886 120.414 27.992 120.414 26.996ZM128.532 27.032C128.532 26.348 128.388 25.754 128.1 25.25C127.824 24.746 127.458 24.362 127.002 24.098C126.546 23.834 126.054 23.702 125.526 23.702C124.998 23.702 124.506 23.834 124.05 24.098C123.594 24.35 123.222 24.728 122.934 25.232C122.658 25.724 122.52 26.312 122.52 26.996C122.52 27.68 122.658 28.28 122.934 28.796C123.222 29.312 123.594 29.708 124.05 29.984C124.518 30.248 125.01 30.38 125.526 30.38C126.054 30.38 126.546 30.248 127.002 29.984C127.458 29.72 127.824 29.336 128.1 28.832C128.388 28.316 128.532 27.716 128.532 27.032ZM135.349 23.522C135.649 23.018 136.045 22.628 136.537 22.352C137.041 22.064 137.635 21.92 138.319 21.92V24.044H137.797C136.993 24.044 136.381 24.248 135.961 24.656C135.553 25.064 135.349 25.772 135.349 26.78V32H133.297V22.082H135.349V23.522ZM144.197 25.718C144.197 24.494 144.479 23.396 145.043 22.424C145.619 21.452 146.393 20.696 147.365 20.156C148.349 19.604 149.423 19.328 150.587 19.328C151.919 19.328 153.101 19.658 154.133 20.318C155.177 20.966 155.933 21.89 156.401 23.09H153.935C153.611 22.43 153.161 21.938 152.585 21.614C152.009 21.29 151.343 21.128 150.587 21.128C149.759 21.128 149.021 21.314 148.373 21.686C147.725 22.058 147.215 22.592 146.843 23.288C146.483 23.984 146.303 24.794 146.303 25.718C146.303 26.642 146.483 27.452 146.843 28.148C147.215 28.844 147.725 29.384 148.373 29.768C149.021 30.14 149.759 30.326 150.587 30.326C151.343 30.326 152.009 30.164 152.585 29.84C153.161 29.516 153.611 29.024 153.935 28.364H156.401C155.933 29.564 155.177 30.488 154.133 31.136C153.101 31.784 151.919 32.108 150.587 32.108C149.411 32.108 148.337 31.838 147.365 31.298C146.393 30.746 145.619 29.984 145.043 29.012C144.479 28.04 144.197 26.942 144.197 25.718ZM163.105 32.162C162.169 32.162 161.323 31.952 160.567 31.532C159.811 31.1 159.217 30.5 158.785 29.732C158.353 28.952 158.137 28.052 158.137 27.032C158.137 26.024 158.359 25.13 158.803 24.35C159.247 23.57 159.853 22.97 160.621 22.55C161.389 22.13 162.247 21.92 163.195 21.92C164.143 21.92 165.001 22.13 165.769 22.55C166.537 22.97 167.143 23.57 167.587 24.35C168.031 25.13 168.253 26.024 168.253 27.032C168.253 28.04 168.025 28.934 167.569 29.714C167.113 30.494 166.489 31.1 165.697 31.532C164.917 31.952 164.053 32.162 163.105 32.162ZM163.105 30.38C163.633 30.38 164.125 30.254 164.581 30.002C165.049 29.75 165.427 29.372 165.715 28.868C166.003 28.364 166.147 27.752 166.147 27.032C166.147 26.312 166.009 25.706 165.733 25.214C165.457 24.71 165.091 24.332 164.635 24.08C164.179 23.828 163.687 23.702 163.159 23.702C162.631 23.702 162.139 23.828 161.683 24.08C161.239 24.332 160.885 24.71 160.621 25.214C160.357 25.706 160.225 26.312 160.225 27.032C160.225 28.1 160.495 28.928 161.035 29.516C161.587 30.092 162.277 30.38 163.105 30.38ZM175.286 21.92C176.066 21.92 176.762 22.082 177.374 22.406C177.998 22.73 178.484 23.21 178.832 23.846C179.18 24.482 179.354 25.25 179.354 26.15V32H177.32V26.456C177.32 25.568 177.098 24.89 176.654 24.422C176.21 23.942 175.604 23.702 174.836 23.702C174.068 23.702 173.456 23.942 173 24.422C172.556 24.89 172.334 25.568 172.334 26.456V32H170.282V22.082H172.334V23.216C172.67 22.808 173.096 22.49 173.612 22.262C174.14 22.034 174.698 21.92 175.286 21.92ZM185.571 32.162C184.791 32.162 184.089 32.024 183.465 31.748C182.853 31.46 182.367 31.076 182.007 30.596C181.647 30.104 181.455 29.558 181.431 28.958H183.555C183.591 29.378 183.789 29.732 184.149 30.02C184.521 30.296 184.983 30.434 185.535 30.434C186.111 30.434 186.555 30.326 186.867 30.11C187.191 29.882 187.353 29.594 187.353 29.246C187.353 28.874 187.173 28.598 186.813 28.418C186.465 28.238 185.907 28.04 185.139 27.824C184.395 27.62 183.789 27.422 183.321 27.23C182.853 27.038 182.445 26.744 182.097 26.348C181.761 25.952 181.593 25.43 181.593 24.782C181.593 24.254 181.749 23.774 182.061 23.342C182.373 22.898 182.817 22.55 183.393 22.298C183.981 22.046 184.653 21.92 185.409 21.92C186.537 21.92 187.443 22.208 188.127 22.784C188.823 23.348 189.195 24.122 189.243 25.106H187.191C187.155 24.662 186.975 24.308 186.651 24.044C186.327 23.78 185.889 23.648 185.337 23.648C184.797 23.648 184.383 23.75 184.095 23.954C183.807 24.158 183.663 24.428 183.663 24.764C183.663 25.028 183.759 25.25 183.951 25.43C184.143 25.61 184.377 25.754 184.653 25.862C184.929 25.958 185.337 26.084 185.877 26.24C186.597 26.432 187.185 26.63 187.641 26.834C188.109 27.026 188.511 27.314 188.847 27.698C189.183 28.082 189.357 28.592 189.369 29.228C189.369 29.792 189.213 30.296 188.901 30.74C188.589 31.184 188.145 31.532 187.569 31.784C187.005 32.036 186.339 32.162 185.571 32.162ZM200.568 22.082V32H198.516V30.83C198.192 31.238 197.766 31.562 197.238 31.802C196.722 32.03 196.17 32.144 195.582 32.144C194.802 32.144 194.1 31.982 193.476 31.658C192.864 31.334 192.378 30.854 192.018 30.218C191.67 29.582 191.496 28.814 191.496 27.914V22.082H193.53V27.608C193.53 28.496 193.752 29.18 194.196 29.66C194.64 30.128 195.246 30.362 196.014 30.362C196.782 30.362 197.388 30.128 197.832 29.66C198.288 29.18 198.516 28.496 198.516 27.608V22.082H200.568ZM205.328 18.68V32H203.276V18.68H205.328ZM210.416 23.756V29.246C210.416 29.618 210.5 29.888 210.668 30.056C210.848 30.212 211.148 30.29 211.568 30.29H212.828V32H211.208C210.284 32 209.576 31.784 209.084 31.352C208.592 30.92 208.346 30.218 208.346 29.246V23.756H207.176V22.082H208.346V19.616H210.416V22.082H212.828V23.756H210.416ZM214.035 26.996C214.035 26 214.239 25.118 214.647 24.35C215.067 23.582 215.631 22.988 216.339 22.568C217.059 22.136 217.851 21.92 218.715 21.92C219.495 21.92 220.173 22.076 220.749 22.388C221.337 22.688 221.805 23.066 222.153 23.522V22.082H224.223V32H222.153V30.524C221.805 30.992 221.331 31.382 220.731 31.694C220.131 32.006 219.447 32.162 218.679 32.162C217.827 32.162 217.047 31.946 216.339 31.514C215.631 31.07 215.067 30.458 214.647 29.678C214.239 28.886 214.035 27.992 214.035 26.996ZM222.153 27.032C222.153 26.348 222.009 25.754 221.721 25.25C221.445 24.746 221.079 24.362 220.623 24.098C220.167 23.834 219.675 23.702 219.147 23.702C218.619 23.702 218.127 23.834 217.671 24.098C217.215 24.35 216.843 24.728 216.555 25.232C216.279 25.724 216.141 26.312 216.141 26.996C216.141 27.68 216.279 28.28 216.555 28.796C216.843 29.312 217.215 29.708 217.671 29.984C218.139 30.248 218.631 30.38 219.147 30.38C219.675 30.38 220.167 30.248 220.623 29.984C221.079 29.72 221.445 29.336 221.721 28.832C222.009 28.316 222.153 27.716 222.153 27.032Z" fill="white"/>
<g clip-path="url(#clip0_95_305)">
<path d="M47.2516 16.6345C46.1056 15.4774 44.7408 14.5602 43.2366 13.9362C41.7324 13.3122 40.1191 12.994 38.4906 13.0001C31.6672 13.0001 26.1063 18.5595 26.1 25.3845C26.1 27.5704 26.6719 29.697 27.7516 31.5798L26 38.0001L32.5687 36.2782C34.3851 37.2692 36.4215 37.7877 38.4906 37.786H38.4969C45.3219 37.786 50.8813 32.2267 50.8875 25.3954C50.8889 23.7674 50.5682 22.1551 49.9439 20.6516C49.3197 19.148 48.4057 17.7827 47.2516 16.6345ZM38.4906 35.6891C36.6456 35.6877 34.8347 35.1913 33.2469 34.2516L32.8719 34.0266L28.975 35.0485L30.0156 31.247L29.7719 30.8548C28.7403 29.2147 28.1948 27.3158 28.1984 25.3782C28.1984 19.7126 32.8187 15.0907 38.4969 15.0907C39.8496 15.0883 41.1894 15.3536 42.4391 15.8715C43.6888 16.3893 44.8236 17.1494 45.7781 18.1079C46.7358 19.0628 47.495 20.1978 48.012 21.4475C48.529 22.6971 48.7937 24.0368 48.7906 25.3891C48.7844 31.0751 44.1641 35.6891 38.4906 35.6891ZM44.1391 27.9798C43.8313 27.8251 42.3109 27.0766 42.025 26.9704C41.7406 26.8688 41.5328 26.8157 41.3297 27.1251C41.1219 27.4329 40.5281 28.1345 40.35 28.336C40.1719 28.5438 39.9875 28.5673 39.6781 28.4141C39.3703 28.2579 38.3719 27.9329 37.1906 26.8751C36.2688 26.0548 35.6516 25.0391 35.4672 24.7313C35.2891 24.422 35.45 24.2563 35.6047 24.1016C35.7406 23.9641 35.9125 23.7391 36.0672 23.561C36.2234 23.3829 36.275 23.2516 36.3766 23.0454C36.4781 22.836 36.4297 22.6579 36.3531 22.5032C36.275 22.3485 35.6578 20.822 35.3969 20.2063C35.1469 19.5985 34.8922 19.6829 34.7016 19.6751C34.5234 19.6641 34.3156 19.6641 34.1078 19.6641C33.9509 19.6681 33.7965 19.7045 33.6543 19.7709C33.512 19.8373 33.3851 19.9323 33.2812 20.0501C32.9969 20.3595 32.2016 21.1079 32.2016 22.6345C32.2016 24.161 33.3109 25.6282 33.4672 25.836C33.6203 26.0438 35.6453 29.1673 38.7531 30.511C39.4875 30.8313 40.0656 31.0204 40.5172 31.1641C41.2594 31.4016 41.9297 31.3657 42.4641 31.2891C43.0578 31.1985 44.2938 30.5391 44.5547 29.8157C44.8109 29.0907 44.8109 28.472 44.7328 28.3423C44.6562 28.211 44.4484 28.1345 44.1391 27.9798Z" fill="white"/>
</g>
</g>
<defs>
<filter id="filter0_d_95_305" x="0" y="0" width="252" height="62" filterUnits="userSpaceOnUse" color-interpolation-filters="sRGB">
<feFlood flood-opacity="0" result="BackgroundImageFix"/>
<feColorMatrix in="SourceAlpha" type="matrix" values="0 0 0 0 0 0 0 0 0 0 0 0 0 0 0 0 0 0 127 0" result="hardAlpha"/>
<feOffset dy="4"/>
<feGaussianBlur stdDeviation="2"/>
<feComposite in2="hardAlpha" operator="out"/>
<feColorMatrix type="matrix" values="0 0 0 0 0 0 0 0 0 0 0 0 0 0 0 0 0 0 0.25 0"/>
<feBlend mode="normal" in2="BackgroundImageFix" result="effect1_dropShadow_95_305"/>
<feBlend mode="normal" in="SourceGraphic" in2="effect1_dropShadow_95_305" result="shape"/>
</filter>
<clipPath id="clip0_95_305">
<rect width="25" height="25" fill="white" transform="translate(26 13)"/>
</clipPath>
</defs>
</svg>
